<svg width="13" height="11" viewBox="0 0 13 11" fill="none" xmlns="http://www.w3.org/2000/svg">
<path fill-rule="evenodd" clip-rule="evenodd" d="M2 1.75C1.60218 1.75 1.22064 1.90804 0.93934 2.18934C0.658035 2.47064 0.5 2.85218 0.5 3.25V9.25C0.5 9.64782 0.658035 10.0294 0.93934 10.3107C1.22064 10.592 1.60218 10.75 2 10.75H11C11.3978 10.75 11.7794 10.592 12.0607 10.3107C12.342 10.0294 12.5 9.64782 12.5 9.25V3.25C12.5 2.85218 12.342 2.47064 12.0607 2.18934C11.7794 1.90804 11.3978 1.75 11 1.75H9.8105C9.6116 1.74996 9.42087 1.67091 9.28025 1.53025L8.4395 0.6895C8.15826 0.408176 7.77679 0.250085 7.379 0.25H5.621C5.22321 0.250085 4.84174 0.408176 4.5605 0.6895L3.71975 1.53025C3.57913 1.67091 3.3884 1.74996 3.1895 1.75H2ZM6.5 8.5C6.79547 8.5 7.08806 8.4418 7.36104 8.32873C7.63402 8.21566 7.88206 8.04992 8.09099 7.84099C8.29992 7.63206 8.46566 7.38402 8.57873 7.11104C8.6918 6.83806 8.75 6.54547 8.75 6.25C8.75 5.95453 8.6918 5.66194 8.57873 5.38896C8.46566 5.11598 8.29992 4.86794 8.09099 4.65901C7.88206 4.45008 7.63402 4.28434 7.36104 4.17127C7.08806 4.0582 6.79547 4 6.5 4C5.90326 4 5.33097 4.23705 4.90901 4.65901C4.48705 5.08097 4.25 5.65326 4.25 6.25C4.25 6.84674 4.48705 7.41903 4.90901 7.84099C5.33097 8.26295 5.90326 8.5 6.5 8.5Z" fill="#7B7B7B"/>
</svg>
